<svg width="62" height="84" viewBox="0 0 62 84" fill="none" xmlns="http://www.w3.org/2000/svg">
<path d="M55.4551 55.9458L43.6612 48.229L48.202 39.904C49.2972 37.8252 49.871 35.5115 49.874 33.1619V19.9645C49.8703 14.9059 47.8601 10.0553 44.2845 6.47698C40.7089 2.89862 35.8599 0.88467 30.8014 0.876953C20.2953 0.876953 11.7481 9.43971 11.7481 19.9645V33.1619C11.7369 35.5105 12.3044 37.8256 13.4005 39.9027L17.9661 48.2728L6.24074 55.9458C4.34913 57.1812 2.79594 58.8693 1.72213 60.8571C0.648313 62.8449 0.0878678 65.0693 0.0916489 67.3286L0 83.0189H61.6051V67.3458C61.611 65.0837 61.0515 62.8559 59.9775 60.865C58.9034 58.8741 57.3489 57.1831 55.4551 55.9458ZM55.7396 77.1534H5.89962L5.95644 67.3458C5.95201 66.058 6.26951 64.7895 6.88006 63.6556C7.49062 62.5217 8.37489 61.5584 9.45248 60.8533L25.7077 50.2167L18.5497 37.094C17.9292 35.8765 17.6083 34.5284 17.6136 33.1619V19.9645C17.6136 16.4643 19.0041 13.1075 21.4791 10.6325C23.9541 8.15748 27.3109 6.76704 30.8111 6.76704C34.3112 6.76704 37.6681 8.15748 40.1431 10.6325C42.6181 13.1075 44.0085 16.4643 44.0085 19.9645V33.1619C44.0079 34.5301 43.6802 35.8783 43.0526 37.094L35.9194 50.1719L52.2435 60.8534C53.3211 61.5586 54.2053 62.522 54.8159 63.6558C55.4264 64.7897 55.744 66.0582 55.7396 67.346V77.1534Z" fill="white"/>
</svg>
